<?xml version="1.0" standalone="no"?>
<!DOCTYPE svg PUBLIC "-//W3C//DTD SVG 20010904//EN"
 "http://www.w3.org/TR/2001/REC-SVG-20010904/DTD/svg10.dtd">
<svg version="1.0" xmlns="http://www.w3.org/2000/svg"
 width="300.000000pt" height="40.000000pt" viewBox="0 0 300.000000 40.000000"
 preserveAspectRatio="xMidYMid meet">

<g transform="translate(0.000000,40.000000) scale(0.100000,-0.100000)"
fill="#000000" stroke="none">
<path d="M30 377 c-25 -13 -25 -13 -28 -172 -3 -206 -14 -195 188 -195 155 0
176 6 168 47 -3 16 -18 18 -141 21 l-137 3 0 44 0 45 110 0 c93 0 112 3 117
16 15 39 -9 49 -121 52 l-106 3 0 39 0 39 137 3 c127 3 138 5 141 22 8 38 -23
46 -167 46 -90 0 -145 -5 -161 -13z"/>
<path d="M842 374 c-21 -15 -22 -21 -22 -174 0 -198 -7 -190 160 -190 63 0
133 5 155 10 79 18 110 98 61 157 -24 28 -24 29 -5 52 42 52 11 131 -59 151
-61 17 -263 13 -290 -6z m278 -72 c19 -16 21 -22 11 -40 -11 -21 -19 -22 -124
-22 l-113 0 4 40 4 40 98 0 c80 0 102 -3 120 -18z m1 -142 c11 -6 19 -21 19
-35 0 -36 -28 -45 -138 -45 l-100 0 -4 41 c-2 22 -2 42 1 45 9 9 203 4 222 -6z"/>
<path d="M1320 375 c-23 -28 -8 -50 38 -53 l42 -3 0 -119 0 -119 -42 -3 c-32
-2 -44 -8 -46 -21 -8 -38 15 -47 122 -47 109 0 141 11 135 46 -3 15 -14 20
-47 22 l-42 3 0 119 0 119 42 3 c33 2 44 7 47 22 6 35 -26 46 -135 46 -77 0
-105 -4 -114 -15z"/>
<path d="M1675 378 c-3 -8 -4 -92 -3 -188 l3 -175 30 0 c29 0 30 1 35 59 5 54
7 60 41 79 l36 21 94 -82 c71 -62 100 -82 119 -80 19 2 25 9 25 27 0 18 -22
44 -85 100 -47 41 -86 78 -87 81 -1 3 35 30 80 60 66 44 82 60 82 80 0 48 -36
36 -167 -52 -68 -46 -126 -84 -130 -86 -4 -2 -8 34 -10 80 -3 82 -3 83 -31 86
-16 2 -29 -2 -32 -10z"/>
<path d="M2183 380 c-30 -12 -35 -50 -31 -208 2 -90 7 -135 16 -144 9 -9 55
-14 154 -16 173 -4 190 -1 186 36 l-3 27 -137 3 -138 3 0 44 0 44 113 3 c110
3 112 4 115 27 2 13 -2 28 -10 32 -7 5 -59 9 -115 9 l-103 0 0 40 0 39 138 3
c136 3 137 3 140 27 2 13 -2 28 -10 32 -17 11 -287 10 -315 -1z"/>
<path d="M2687 376 c-51 -19 -75 -42 -82 -80 -9 -43 9 -82 44 -100 18 -10 73
-18 140 -22 114 -7 136 -16 129 -51 -9 -47 -151 -59 -239 -21 -47 20 -51 20
-67 4 -38 -38 41 -87 154 -94 141 -9 224 33 224 114 0 80 -59 114 -200 114
-72 0 -110 13 -110 38 0 45 135 58 221 20 47 -20 51 -20 67 -4 21 21 9 43 -38
71 -44 25 -187 32 -243 11z"/>
<path d="M452 231 c-8 -4 -12 -19 -10 -32 3 -24 3 -24 143 -24 127 0 140 2
143 18 8 40 -14 47 -142 47 -66 0 -127 -4 -134 -9z"/>
</g>
</svg>
